# AST/ASF file generated using VICON BodyLanguage
# -----------------------------------------------
:version 1.10
:name VICON
:units
  mass 1.0
  length 0.45
  angle deg
:documentation
   .ast/.asf automatically generated from VICON data using
   VICON BodyBuilder and BodyLanguage model FoxedUp or BRILLIANT.MOD
:root
   order TX TY TZ RX RY RZ
   axis XYZ
   position 0 0 0  
   orientation 0 0 0 
:bonedata
  begin
     id 1 
     name lhipjoint
     direction 0.578396 -0.714046 0.394458 
     length 2.21935 
     axis 0 0 0  XYZ
  end
  begin
     id 2 
     name lfemur
     direction 0.34202 -0.939693 0  
     length 6.39105  
     axis 0 0 20  XYZ
    dof rx ry rz
    limits (-160.0 20.0)
           (-70.0 70.0)
           (-60.0 70.0)
  end
  begin
     id 3 
     name ltibia
     direction 0.34202 -0.939693 0   
     length 6.99037   
     axis 0 0 20   XYZ
    dof rx
    limits (-10.0 170.0)
  end
  begin
     id 4 
     name lfoot
     direction 0.0582372 -0.160005 0.985397   
     length 2.06111   
     axis -90 7.62852e-016 20   XYZ
    dof rx rz
    limits (-45.0 90.0)
           (-70.0 20.0)
  end
  begin
     id 5 
     name ltoes
     direction 1.53556e-011 -4.21875e-011 1   
     length 1.04074   
     axis -90 7.62852e-016 20   XYZ
    dof rx
    limits (-90.0 20.0)
  end
  begin
     id 6 
     name rhipjoint
     direction -0.558179 -0.726269 0.40121   
     length 2.182  
     axis 0 0 0  XYZ 
  end
  begin
     id 7 
     name rfemur
     direction -0.34202 -0.939693 0   
     length 6.51172   
     axis 0 0 -20   XYZ
    dof rx ry rz
    limits (-160.0 20.0)
           (-70.0 70.0)
           (-70.0 60.0)
  end
  begin
     id 8 
     name rtibia
     direction -0.34202 -0.939693 0   
     length 7.02607   
     axis 0 0 -20   XYZ
    dof rx
    limits (-10.0 170.0)
 end
 begin
     id 9 
     name rfoot
     direction -0.0788856 -0.216737 0.973038   
     length 1.96734  
     axis -90 -7.62852e-016 -20   XYZ
    dof rx rz
    limits (-45.0 90.0)
           (-20.0 70.0)
  end
  begin
     id 10 
     name rtoes
     direction -1.53567e-011 -4.21783e-011 1   
     length 0.990825   
     axis -90 -7.62852e-016 -20   XYZ
    dof rx
    limits (-90.0 20.0)
  end
  begin
     id 11 
     name lowerback
     direction 0.00668177 0.999323 -0.0361741   
     length 1.7655   
     axis 0 0 0   XYZ
    dof rx ry rz
    limits (-20.0 45.0)
           (-30.0 30.0)
           (-30.0 30.0)
  end
  begin
     id 12 
     name upperback
     direction -0.00222086 0.99851 0.0545167   
     length 1.74912   
     axis 0 0 0   XYZ
    dof rx ry rz
    limits (-20.0 45.0)
           (-30.0 30.0)
           (-30.0 30.0)
  end
  begin
     id 13 
     name thorax
     direction -0.00733971 0.997496 0.0703443   
     length 1.75715   
     axis 0 0 0   XYZ
    dof rx ry rz
    limits (-20.0 45.0)
           (-30.0 30.0)
           (-30.0 30.0)
  end
  begin
     id 14 
     name lowerneck
     direction 0.0279797 0.994795 0.0979765   
     length 1.46939   
     axis 0 0 0   XYZ
    dof rx ry rz
    limits (-20.0 45.0)
           (-30.0 30.0)
           (-30.0 30.0)
  end
  begin
     id 15 
     name upperneck
     direction 0.00339187 0.976776 -0.214238   
     length 1.48018   
     axis 0 0 0   XYZ
    dof rx ry rz
    limits (-20.0 45.0)
           (-30.0 30.0)
           (-30.0 30.0)
  end
  begin
     id 16
     name head
     direction -0.00263506 0.996603 -0.0823096  
     length 1.4976  
     axis 0 0 0   XYZ
    dof rx ry rz
    limits (-20.0 45.0)
           (-30.0 30.0)
           (-30.0 30.0)
  end
  begin
     id 17 
     name lclavicle
     direction 0.894044 0.44508 -0.0508781  
     length 3.03024  
     axis 0 0 0   XYZ
    dof ry rz
    limits (-20.0 10.0)
           (0.0 20.0)
  end
  begin
     id 18 
     name lhumerus
     direction 1 -4.48961e-011 -2.39475e-018   
     length 4.4661   
     axis 180 -30 -90   XYZ
    dof rx ry rz
    limits (-60.0 90.0)
           (-90.0 90.0)
           (-90.0 90.0)
  end
  begin
     id 19
     name lradius
     direction 1 -4.48961e-011 9.29328e-028   
     length 3.41414   
     axis 180 -30 -90   XYZ
    dof rx
    limits (-10.0 170.0)
  end
  begin
     id 20
     name lwrist
     direction 1 -4.48985e-011 1.53461e-026   
     length 1.70707   
     axis -1.09697e-014 90 90   XYZ
    dof ry
    limits (-180.0 0.0)
 end
  begin
     id 21 
     name lhand
     direction 1 -4.48966e-011 3.06923e-026   
     length 0.328298   
     axis -1.95843e-014 90 90   XYZ
    dof rx rz
    limits (-90.0 90.0)
           (-45.0 45.0)
  end
  begin
     id 22 
     name lfingers
     direction 1 -4.48893e-011 6.13845e-026   
     length 0.264682   
     axis -3.91686e-014 90 90   XYZ
    dof rx
    limits (0.0 90.0)
  end
  begin
     id 23
     name lthumb
     direction 0.707107 -6.34876e-011 0.707107   
     length 0.380032   
     axis -90 45 2.85299e-015   XYZ
    dof rx rz
    limits (-45.0 45.0)
           (-45.0 45.0)
  end
  begin
     id 24 
     name rclavicle
     direction -0.936955 0.347862 -0.0332887   
     length 3.26927  
     axis 0 0 0   XYZ 
    dof ry rz
    limits (-10.0 20.0)
           (-20.0 0.0)
  end
  begin
     id 25 
     name rhumerus
     direction -1 -4.4896e-011 1.78637e-018  
     length 4.40431   
     axis 180 30 90   XYZ
    dof rx ry rz
    limits (-90.0 60.0)
           (-90.0 90.0)
           (-90.0 90.0)
  end
  begin
     id 26 
     name rradius
     direction -1 -4.48955e-011 9.34036e-027   
     length 3.04688   
     axis 180 30 90   XYZ
    dof rx
    limits (-10.0 170.0)
  end
  begin
     id 27 
     name rwrist
     direction -1 -4.49011e-011 1.53461e-026   
     length 1.52344   
     axis -1.09697e-014 -90 -90   XYZ
    dof ry
    limits (-180.0 0.0)
  end
  begin
     id 28
     name rhand
     direction -1 -4.48834e-011 3.06923e-026   
     length 0.500489   
     axis -1.95843e-014 -90 -90   XYZ
    dof rx rz
    limits (-90.0 90.0)
           (-45.0 45.0)
  end
  begin
     id 29
     name rfingers
     direction -1 -4.48967e-011 6.13845e-026   
     length 0.403507   
     axis -3.91686e-014 -90 -90   XYZ
    dof rx
    limits (0.0 90.0)
  end
  begin
     id 30
     name rthumb
     direction -0.707107 -6.34826e-011 0.707107   
     length 0.579358   
     axis -90 -45 -2.85299e-015   XYZ
    dof rx rz
    limits (-45.0 45.0)
           (-45.0 45.0)
  end
:hierarchy
  begin
    root lhipjoint rhipjoint lowerback
    lhipjoint lfemur
    lfemur ltibia
    ltibia lfoot
    lfoot ltoes
    rhipjoint rfemur
    rfemur rtibia
    rtibia rfoot
    rfoot rtoes
    lowerback upperback
    upperback thorax
    thorax lowerneck lclavicle rclavicle
    lowerneck upperneck
    upperneck head
    lclavicle lhumerus
    lhumerus lradius
    lradius lwrist
    lwrist lhand lthumb
    lhand lfingers
    rclavicle rhumerus
    rhumerus rradius
    rradius rwrist
    rwrist rhand rthumb
    rhand rfingers
  end

#!OML:ASF H:\IndianDance\Patient Classification 1\Patient 1\Session 1\dancer.ASF
:FULLY-SPECIFIED
:DEGREES
312
root 11.0756 13.5612 1.5246 53.0077 -84.6068 -52.4634
lowerback 6.26532 -0.264518 0.553626
upperback -5.40233 -0.281755 0.941558
thorax -9.23605 -0.163275 0.732501
lowerneck -16.2436 -9.34134 -3.01227
upperneck 29.0132 -11.2638 -6.52529
head 12.0023 -6.45594 -3.65473
rclavicle 6.16232e-015 -1.19271e-015
rhumerus -2.09913 36.0912 -5.89792
rradius 39.9504
rwrist -14.7666
rhand -5.01702 12.9035
rfingers 7.12502
rthumb 20.7771 -16.0042
lclavicle 6.16232e-015 -1.19271e-015
lhumerus -8.69916 -32.338 1.65299
lradius 41.4163
lwrist 8.75667
lhand -2.58023 8.6617
lfingers 7.12502
lthumb 23.1168 37.2949
rfemur -36.5747 -39.8071 21.0615
rtibia 71.969
rfoot -29.2991 -12.1326
rtoes 11.5545
lfemur -35.0295 40.3009 -12.7141
ltibia 72.2416
lfoot -30.1955 5.80632
ltoes 9.71732
313
root 11.0738 13.5696 1.5253 52.9172 -84.5932 -52.3764
lowerback 6.25065 -0.254196 0.572957
upperback -5.40954 -0.267208 0.928733
thorax -9.2355 -0.158047 0.705934
lowerneck -16.2436 -9.33138 -3.01252
upperneck 28.9604 -11.2581 -6.48072
head 11.9848 -6.44632 -3.6339
rclavicle 4.27387e-015 9.93923e-015
rhumerus -2.11055 36.0209 -5.97205
rradius 39.8393
rwrist -14.7386
rhand -4.9596 12.8711
rfingers 7.12502
rthumb 20.8322 -16.0305
lclavicle 4.27387e-015 9.93923e-015
lhumerus -8.69327 -32.3087 1.67363
lradius 41.3409
lwrist 8.74531
lhand -2.5795 8.6395
lfingers 7.12502
lthumb 23.1175 37.2726
rfemur -36.4828 -39.775 21.055
rtibia 71.8373
rfoot -29.2713 -12.1505
rtoes 11.6221
lfemur -34.9482 40.2149 -12.71
ltibia 72.1135
lfoot -30.172 5.83297
ltoes 9.80497
314
root 11.0718 13.578 1.52604 52.8013 -84.5846 -52.2611
lowerback 6.23136 -0.242735 0.585852
upperback -5.41451 -0.251997 0.913782
thorax -9.22972 -0.152138 0.680567
lowerneck -16.2537 -9.31946 -3.0113
upperneck 28.9182 -11.2517 -6.42996
head 11.9738 -6.43535 -3.61241
rclavicle -9.93923e-017 -3.97569e-016
rhumerus -2.12508 35.9503 -6.05193
rradius 39.7243
rwrist -14.7127
rhand -4.90997 12.8366
rfingers 7.12502
rthumb 20.8799 -16.0597
lclavicle -9.93923e-017 -3.97569e-016
lhumerus -8.68627 -32.2838 1.69523
lradius 41.2622
lwrist 8.74951
lhand -2.5944 8.63548
lfingers 7.12502
lthumb 23.1032 37.2704
rfemur -36.3938 -39.7463 21.0433
rtibia 71.7064
rfoot -29.2437 -12.1628
rtoes 11.6894
lfemur -34.868 40.1325 -12.7136
ltibia 71.9845
lfoot -30.149 5.85931
ltoes 9.88063
315
root 11.0696 13.5866 1.52681 52.7128 -84.5778 -52.1698
lowerback 6.20802 -0.230247 0.596461
upperback -5.41947 -0.235671 0.899464
thorax -9.22151 -0.145523 0.656976
lowerneck -16.2706 -9.30472 -3.01047
upperneck 28.8899 -11.2427 -6.37497
head 11.9701 -6.42281 -3.59048
rclavicle -4.87022e-015 0
rhumerus -2.14077 35.891 -6.13223
rradius 39.6102
rwrist -14.6858
rhand -4.87349 12.7954
rfingers 7.12502
rthumb 20.915 -16.0971
lclavicle -4.87022e-015 0
lhumerus -8.68357 -32.2598 1.72167
lradius 41.1816
lwrist 8.77178
lhand -2.62594 8.63722
lfingers 7.12502
lthumb 23.0729 37.2759
rfemur -36.3092 -39.7183 21.0342
rtibia 71.5754
rfoot -29.2141 -12.1769
rtoes 11.7405
lfemur -34.7901 40.0565 -12.7188
ltibia 71.8547
lfoot -30.1255 5.88408
ltoes 9.94509
316
root 11.0672 13.5952 1.52765 52.6509 -84.5724 -52.1014
lowerback 6.18182 -0.216987 0.606346
upperback -5.42431 -0.218419 0.885363
thorax -9.21146 -0.138409 0.633882
lowerneck -16.2974 -9.28735 -3.01037
upperneck 28.8753 -11.2321 -6.31255
head 11.9744 -6.40862 -3.56717
rclavicle -4.82053e-015 1.31198e-014
rhumerus -2.15535 35.849 -6.20979
rradius 39.4987
rwrist -14.6594
rhand -4.84994 12.7546
rfingers 7.12502
rthumb 20.9376 -16.1354
lclavicle -4.82053e-015 1.31198e-014
lhumerus -8.68341 -32.2288 1.75381
lradius 41.0975
lwrist 8.81106
lhand -2.67104 8.64438
lfingers 7.12502
lthumb 23.0296 37.2884
rfemur -36.2281 -39.6914 21.0277
rtibia 71.4434
rfoot -29.1849 -12.1861
rtoes 11.7955
lfemur -34.7153 39.9887 -12.7261
ltibia 71.7232
lfoot -30.1001 5.91103
ltoes 9.99153
